<svg width="19" height="18" viewBox="0 0 19 18" fill="none" xmlns="http://www.w3.org/2000/svg">
<path d="M17.4737 12.9791V15.3877C17.4746 15.6113 17.4288 15.8327 17.3392 16.0375C17.2496 16.2424 17.1182 16.4263 16.9535 16.5775C16.7887 16.7286 16.5942 16.8437 16.3823 16.9154C16.1705 16.987 15.9461 17.0136 15.7234 16.9935C13.2528 16.725 10.8796 15.8808 8.79451 14.5286C6.85461 13.2959 5.20992 11.6512 3.97722 9.71135C2.62034 7.61679 1.77592 5.23206 1.51238 2.75036C1.49231 2.52834 1.5187 2.30457 1.58985 2.0933C1.66101 1.88203 1.77538 1.6879 1.92567 1.52325C2.07597 1.35861 2.2589 1.22706 2.46282 1.13699C2.66674 1.04691 2.88718 1.00029 3.11011 1.00008H5.51876C5.9084 0.996243 6.28614 1.13422 6.58158 1.3883C6.87702 1.64237 7.06999 1.99521 7.12452 2.38103C7.22618 3.15185 7.41472 3.9087 7.68654 4.63713C7.79456 4.9245 7.81794 5.23682 7.7539 5.53707C7.68987 5.83732 7.54111 6.11292 7.32524 6.33121L6.30558 7.35087C7.44853 9.36092 9.11282 11.0252 11.1229 12.1682L12.1425 11.1485C12.3608 10.9326 12.6364 10.7839 12.9367 10.7198C13.2369 10.6558 13.5492 10.6792 13.8366 10.7872C14.565 11.059 15.3219 11.2476 16.0927 11.3492C16.4827 11.4042 16.8389 11.6007 17.0935 11.9012C17.3481 12.2017 17.4834 12.5853 17.4737 12.9791Z" stroke="#2F2E41" stroke-width="1.5" stroke-linecap="round" stroke-linejoin="round"/>
</svg>
