<svg width="18" height="18" viewBox="0 0 18 18" fill="none" xmlns="http://www.w3.org/2000/svg">
<path d="M13.1895 1H5.18945C2.98031 1 1.18945 2.79086 1.18945 5V13C1.18945 15.2091 2.98031 17 5.18945 17H13.1895C15.3986 17 17.1895 15.2091 17.1895 13V5C17.1895 2.79086 15.3986 1 13.1895 1Z" stroke="#888888" stroke-width="1.5" stroke-linecap="round" stroke-linejoin="round"/>
<path d="M12.3888 8.496C12.4876 9.16179 12.3738 9.84177 12.0638 10.4392C11.7538 11.0366 11.2633 11.5211 10.6621 11.8237C10.0609 12.1263 9.37959 12.2317 8.71506 12.1247C8.05053 12.0178 7.43664 11.7041 6.9607 11.2281C6.48476 10.7522 6.17101 10.1383 6.06408 9.47377C5.95715 8.80924 6.06248 8.12791 6.36509 7.5267C6.6677 6.92548 7.15218 6.43499 7.74962 6.12499C8.34706 5.81499 9.02703 5.70127 9.69283 5.8C10.372 5.9007 11.0007 6.21717 11.4862 6.70264C11.9717 7.18812 12.2881 7.81686 12.3888 8.496Z" stroke="#888888" stroke-width="1.5" stroke-linecap="round" stroke-linejoin="round"/>
<path d="M13.5898 4.59998H13.5978" stroke="#888888" stroke-width="1.5" stroke-linecap="round" stroke-linejoin="round"/>
</svg>
