<svg width="16" height="18" viewBox="0 0 16 18" fill="none" xmlns="http://www.w3.org/2000/svg">
<path d="M14.5968 7.54545C14.5968 12.6364 8.05131 17 8.05131 17C8.05131 17 1.50586 12.6364 1.50586 7.54545C1.50586 5.80949 2.19547 4.14463 3.42298 2.91712C4.65049 1.68961 6.31535 1 8.05131 1C9.78728 1 11.4521 1.68961 12.6796 2.91712C13.9072 4.14463 14.5968 5.80949 14.5968 7.54545Z" stroke="#2F2E41" stroke-width="1.5" stroke-linecap="round" stroke-linejoin="round"/>
<path d="M8.05096 9.72728C9.25594 9.72728 10.2328 8.75045 10.2328 7.54547C10.2328 6.34048 9.25594 5.36365 8.05096 5.36365C6.84597 5.36365 5.86914 6.34048 5.86914 7.54547C5.86914 8.75045 6.84597 9.72728 8.05096 9.72728Z" stroke="#2F2E41" stroke-width="1.5" stroke-linecap="round" stroke-linejoin="round"/>
</svg>
