<svg width="22" height="18" viewBox="0 0 22 18" fill="none" xmlns="http://www.w3.org/2000/svg">
<path d="M20.8064 1.00897C19.9525 1.61128 19.0071 2.07195 18.0065 2.37324C17.4695 1.75576 16.7558 1.3181 15.9619 1.11947C15.1681 0.920833 14.3323 0.970799 13.5678 1.26261C12.8033 1.55442 12.1468 2.07399 11.6872 2.75105C11.2275 3.42812 10.987 4.23001 10.9979 5.04827V5.93995C9.43091 5.98058 7.87818 5.63305 6.47801 4.92829C5.07784 4.22354 3.87369 3.18345 2.97281 1.90065C2.97281 1.90065 -0.593904 9.92575 7.4312 13.4925C5.59482 14.739 3.4072 15.364 1.18945 15.2758C9.21456 19.7342 19.023 15.2758 19.023 5.02152C19.0222 4.77315 18.9983 4.52539 18.9517 4.28143C19.8617 3.38395 20.504 2.25082 20.8064 1.00897V1.00897Z" stroke="#888888" stroke-width="1.5" stroke-linecap="round" stroke-linejoin="round"/>
</svg>
